<svg width="24" height="24" viewBox="0 0 24 24" fill="none" xmlns="http://www.w3.org/2000/svg">
<g clip-path="url(#clip0_1_3)">
<path d="M23.0001 12C23.0001 12 19.4581 19 12.0001 19C4.54212 19 1.00012 12 1.00012 12C1.00012 12 4.54212 5 12.0001 5C19.4581 5 23.0001 12 23.0001 12Z" stroke="#0D3E5A" stroke-width="2" stroke-linecap="round" stroke-linejoin="round"/>
<path d="M15.7291 12C15.6978 11.0417 15.2875 10.135 14.5884 9.47881C13.8893 8.82263 12.9585 8.47061 12.0001 8.49999C11.0418 8.47061 10.1109 8.82263 9.41177 9.47881C8.71267 10.135 8.30245 11.0417 8.27112 12C8.30245 12.9583 8.71267 13.865 9.41177 14.5212C10.1109 15.1774 11.0418 15.5294 12.0001 15.5C12.9585 15.5294 13.8893 15.1774 14.5884 14.5212C15.2875 13.865 15.6978 12.9583 15.7291 12Z" stroke="#0D3E5A" stroke-width="2" stroke-linecap="round" stroke-linejoin="round"/>
<path d="M2 22L22 2.00001" stroke="#0D3E5A" stroke-width="2"/>
</g>
<defs>
<clipPath id="clip0_1_3">
<rect width="24" height="24" fill="white"/>
</clipPath>
</defs>
</svg>
